<svg xmlns="http://www.w3.org/2000/svg" version="1.1" xmlns:xlink="http://www.w3.org/1999/xlink" xmlns:svgjs="http://svgjs.dev/svgjs" viewBox="0 0 2400 800"><defs><linearGradient x1="50%" y1="0%" x2="50%" y2="100%" id="sssurf-grad"><stop stop-color="#da0037ff" stop-opacity="1" offset="0%"></stop><stop stop-color="#c700daff" stop-opacity="1" offset="100%"></stop></linearGradient></defs><g fill="url(#sssurf-grad)" transform="matrix(1,0,0,1,10.8282470703125,289.0886421203613)"><path d="M-10,10C33.75,11.041666666666666,114.58333333333334,18.958333333333332,200,15C285.41666666666663,11.041666666666668,316.66666666666663,-12.125,400,-9C483.33333333333337,-5.875,516.6666666666666,29.375,600,30C683.3333333333334,30.625,716.6666666666666,-8.5,800,-6C883.3333333333334,-3.5,916.6666666666666,41.375,1000,42C1083.3333333333333,42.625,1116.6666666666667,-3.4166666666666665,1200,-3C1283.3333333333333,-2.5833333333333335,1316.6666666666667,43.375,1400,44C1483.3333333333333,44.625,1516.6666666666667,1.875,1600,0C1683.3333333333333,-1.875,1716.6666666666667,35.625,1800,35C1883.3333333333333,34.375,1916.6666666666667,-2.7916666666666665,2000,-3C2083.3333333333335,-3.2083333333333335,2118.75,31.291666666666668,2200,34C2281.25,36.708333333333336,2296.25,-66.25,2390,10C2483.75,86.25,3252.0833333333335,214.58333333333331,2650,400C2047.9166666666665,585.4166666666667,156.25,795.8333333333334,-500,900" transform="matrix(1,0,0,1,0,35)" opacity="0.05"></path><path d="M-10,10C33.75,11.041666666666666,114.58333333333334,18.958333333333332,200,15C285.41666666666663,11.041666666666668,316.66666666666663,-12.125,400,-9C483.33333333333337,-5.875,516.6666666666666,29.375,600,30C683.3333333333334,30.625,716.6666666666666,-8.5,800,-6C883.3333333333334,-3.5,916.6666666666666,41.375,1000,42C1083.3333333333333,42.625,1116.6666666666667,-3.4166666666666665,1200,-3C1283.3333333333333,-2.5833333333333335,1316.6666666666667,43.375,1400,44C1483.3333333333333,44.625,1516.6666666666667,1.875,1600,0C1683.3333333333333,-1.875,1716.6666666666667,35.625,1800,35C1883.3333333333333,34.375,1916.6666666666667,-2.7916666666666665,2000,-3C2083.3333333333335,-3.2083333333333335,2118.75,31.291666666666668,2200,34C2281.25,36.708333333333336,2296.25,-66.25,2390,10C2483.75,86.25,3252.0833333333335,214.58333333333331,2650,400C2047.9166666666665,585.4166666666667,156.25,795.8333333333334,-500,900" transform="matrix(1,0,0,1,0,70)" opacity="0.53"></path><path d="M-10,10C33.75,11.041666666666666,114.58333333333334,18.958333333333332,200,15C285.41666666666663,11.041666666666668,316.66666666666663,-12.125,400,-9C483.33333333333337,-5.875,516.6666666666666,29.375,600,30C683.3333333333334,30.625,716.6666666666666,-8.5,800,-6C883.3333333333334,-3.5,916.6666666666666,41.375,1000,42C1083.3333333333333,42.625,1116.6666666666667,-3.4166666666666665,1200,-3C1283.3333333333333,-2.5833333333333335,1316.6666666666667,43.375,1400,44C1483.3333333333333,44.625,1516.6666666666667,1.875,1600,0C1683.3333333333333,-1.875,1716.6666666666667,35.625,1800,35C1883.3333333333333,34.375,1916.6666666666667,-2.7916666666666665,2000,-3C2083.3333333333335,-3.2083333333333335,2118.75,31.291666666666668,2200,34C2281.25,36.708333333333336,2296.25,-66.25,2390,10C2483.75,86.25,3252.0833333333335,214.58333333333331,2650,400C2047.9166666666665,585.4166666666667,156.25,795.8333333333334,-500,900" transform="matrix(1,0,0,1,0,105)" opacity="1.00"></path></g></svg>