<svg id="visual" viewBox="0 0 1920 1080" width="1920" height="1080" xmlns="http://www.w3.org/2000/svg" xmlns:xlink="http://www.w3.org/1999/xlink" version="1.1"><rect x="0" y="0" width="1920" height="1080" fill="#171717"></rect><path d="M0 921L45.7 924.3C91.3 927.7 182.7 934.3 274.2 934.8C365.7 935.3 457.3 929.7 548.8 920.7C640.3 911.7 731.7 899.3 823 865.5C914.3 831.7 1005.7 776.3 1097 783.7C1188.3 791 1279.7 861 1371.2 894.3C1462.7 927.7 1554.3 924.3 1645.8 901.2C1737.3 878 1828.7 835 1874.3 813.5L1920 792L1920 1081L1874.3 1081C1828.7 1081 1737.3 1081 1645.8 1081C1554.3 1081 1462.7 1081 1371.2 1081C1279.7 1081 1188.3 1081 1097 1081C1005.7 1081 914.3 1081 823 1081C731.7 1081 640.3 1081 548.8 1081C457.3 1081 365.7 1081 274.2 1081C182.7 1081 91.3 1081 45.7 1081L0 1081Z" fill="#DA0037" stroke-linecap="round" stroke-linejoin="miter"></path></svg>