<svg id="visual" viewBox="0 0 900 600" width="900" height="600" xmlns="http://www.w3.org/2000/svg" xmlns:xlink="http://www.w3.org/1999/xlink" version="1.1"><rect x="0" y="0" width="900" height="600" fill="#001220"></rect><defs><linearGradient id="grad1_0" x1="33.3%" y1="0%" x2="100%" y2="100%"><stop offset="20%" stop-color="#001220" stop-opacity="1"></stop><stop offset="80%" stop-color="#001220" stop-opacity="1"></stop></linearGradient></defs><defs><linearGradient id="grad2_0" x1="0%" y1="0%" x2="66.7%" y2="100%"><stop offset="20%" stop-color="#001220" stop-opacity="1"></stop><stop offset="80%" stop-color="#001220" stop-opacity="1"></stop></linearGradient></defs><g transform="translate(900, 0)"><path d="M0 486.7C-62.3 465.8 -124.5 444.9 -170.3 411.1C-216.1 377.4 -245.3 330.8 -294.9 294.9C-344.4 258.9 -414.3 233.6 -449.7 186.3C-485.1 138.9 -485.9 69.5 -486.7 0L0 0Z" fill="#DA0037"></path></g><g transform="translate(0, 600)"><path d="M0 -486.7C60.4 -459.9 120.8 -433 164.9 -398.2C209.1 -363.3 236.9 -320.5 287.8 -287.8C338.7 -255.1 412.7 -232.5 449.7 -186.3C486.7 -140 486.7 -70 486.7 0L0 0Z" fill="#DA0037"></path></g></svg>