<svg xmlns="http://www.w3.org/2000/svg" version="1.1" xmlns:xlink="http://www.w3.org/1999/xlink" xmlns:svgjs="http://svgjs.dev/svgjs" viewBox="0 0 1422 800"><defs><filter id="uuunion-blur" x="-100%" y="-100%" width="400%" height="400%" color-interpolation-filters="sRGB">
        <feGaussianBlur in="SourceGraphic" stdDeviation="7.5 0" result="blur"></feGaussianBlur>
        <feDropShadow stdDeviation="12.307692307692308" in="blur" dx="10" dy="10" flood-color="#da0037" flood-opacity="0.25" x="0%" y="0%" width="100%" height="100%"></feDropShadow>
      </filter><filter id="uuunion-blur2" x="-100%" y="-100%" width="400%" height="400%" color-interpolation-filters="sRGB">
        <feGaussianBlur in="SourceGraphic" stdDeviation="7.5 0" result="blur"></feGaussianBlur>
        <feDropShadow stdDeviation="12.307692307692308" in="blur" dx="-10" dy="-10" flood-color="#da0037" flood-opacity="0.25" x="0%" y="0%" width="100%" height="100%"></feDropShadow>
      </filter><linearGradient gradientTransform="rotate(0, 0.5, 0.5)" x1="50%" y1="0%" x2="50%" y2="100%" id="uuunion-grad"><stop stop-color="#8c235a" offset="10%"></stop><stop stop-color="#da0037" offset="90%"></stop></linearGradient><linearGradient gradientTransform="rotate(135, 0.5, 0.5)" x1="50%" y1="0%" x2="50%" y2="100%" id="uuunion-grad2"><stop stop-color="#8c235a" offset="25%"></stop><stop stop-color="#da0037" offset="100%"></stop></linearGradient><linearGradient gradientTransform="rotate(333, 0.5, 0.5)" x1="50%" y1="0%" x2="50%" y2="100%" id="uuunion-grad3"><stop stop-color="#8c235a" offset="0%"></stop><stop stop-color="#da0037" offset="75%"></stop></linearGradient></defs><path d="M-133.96 -88.79Q-120.89 -88.46 -107.82 -87.38 -94.76 -85.67 -81.69 -83.45 -68.62 -80.94 -55.56 -78.35 -42.49 -75.89 -29.42 -73.8 -16.36 -72.25 -3.29 -71.37 9.77 -71.24 22.84 -71.87 35.9 -73.22 48.97 -75.15 62.04 -77.5 75.1 -80.08 88.17 -82.64 101.24 -84.98 114.3 -86.88 127.37 -88.18 140.44 -88.77 153.5 -88.59 166.57 -87.67 179.64 -86.07 192.7 -83.95 205.77 -81.48 218.84 -78.88 231.91 -76.38 244.97 -74.2 258.04 -72.52 271.11 -71.49 284.17 -71.2 297.24 -71.68 310.31 -72.88 323.37 -74.7 336.44 -76.99 349.51 -79.53 362.57 -82.12 375.64 -84.52 388.71 -86.53 401.77 -87.96 414.84 -88.71 427.91 -88.69 440.98 -87.92 454.04 -86.45 467.11 -84.43 480.18 -82.02 493.24 -79.43 506.31 -76.89 519.38 -74.62 532.44 -72.82 545.51 -71.65 558.58 -71.2 571.64 -71.52 584.71 -72.57 597.78 -74.28 610.84 -76.48 623.91 -78.99 636.98 -81.58 650.05 -84.04 663.11 -86.15 676.18 -87.72 689.25 -88.61 702.31 -88.76 715.38 -88.14 728.45 -86.81 741.51 -84.89 754.58 -82.54 767.65 -79.97 780.71 -77.4 793.78 -75.06 806.85 -73.15 819.92 -71.83 832.98 -71.23 846.05 -71.39 859.12 -72.3 872.18 -73.87 885.25 -75.99 898.32 -78.45 911.38 -81.05 924.45 -83.55 937.52 -85.75 950.58 -87.44 963.65 -88.49 976.72 -88.79 989.79 -88.33 1002.85 -87.14 1015.92 -85.33 1028.99 -83.06 1042.05 -80.52 1055.12 -77.93 1068.19 -75.52 1081.25 -73.51 1094.32 -72.05 1107.39 -71.29 1120.46 -71.29 1133.52 -72.05 1146.59 -73.5 1159.66 -75.51 1172.72 -77.92 1185.79 -80.5 1198.86 -83.05 1211.92 -85.32 1224.99 -87.13 1238.06 -88.33 1251.12 -88.79 1264.19 -88.49 1277.26 -87.45 1290.33 -85.76 1303.39 -83.56 1316.46 -81.06 1329.53 -78.46 1342.59 -76 1355.66 -73.89 1368.73 -72.3 1381.79 -71.39 1394.86 -71.23 1407.93 -71.83 1421 -73.14 1434.06 -75.05 1447.13 -77.39 1460.2 -79.96 1473.26 -82.53 1486.33 -84.88 1499.4 -86.8 1512.46 -88.13 1528.6 -81.3 1530.64 -59.06 1535.67 -44.28 1545.86 -29.5 1559.37 -14.72 1573.75 0.05 1586.4 14.83 1595.03 29.61 1598.09 44.39 1595.02 59.17 1586.37 73.95 1573.71 88.73 1559.33 103.51 1545.83 118.29 1535.65 133.07 1530.63 147.85 1531.69 162.63 1538.63 177.41 1550.19 192.19 1564.28 206.97 1578.36 221.75 1589.88 236.53 1596.75 251.31 1597.73 266.09 1592.65 280.86 1582.42 295.64 1568.89 310.42 1554.52 325.2 1541.89 339.98 1533.3 354.76 1530.3 369.54 1533.43 384.32 1542.12 399.1 1554.81 413.88 1569.19 428.66 1582.67 443.44 1592.81 458.22 1597.77 473 1596.66 487.78 1589.68 502.56 1578.09 517.34 1563.98 532.12 1549.91 546.9 1538.43 561.68 1531.61 576.46 1530.68 591.24 1535.81 606.02 1546.08 620.8 1559.62 635.58 1573.99 650.35 1586.59 665.13 1595.14 679.91 1598.09 694.69 1594.91 709.47 1586.17 724.25 1573.46 739.03 1559.07 753.81 1545.61 768.59 1535.51 783.37 1530.6 798.15 1531.76 812.93 1538.8 827.71 1550.81 849.69 1537.87 858.54 1524.53 862.05 1511.2 867.12 1497.86 873.32 1484.53 880.09 1471.19 886.86 1457.86 893.03 1444.52 898.07 1431.19 901.53 1417.86 903.11 1404.52 902.68 1391.19 900.27 1377.85 896.1 1364.52 890.53 1351.18 884.03 1337.85 877.19 1324.51 870.59 1311.18 864.8 1297.84 860.35 1284.51 857.6 1271.17 856.81 1257.84 858.03 1244.5 861.17 1231.17 865.95 1217.83 871.95 1204.5 878.66 1191.16 885.48 1177.83 891.82 1164.49 897.13 1151.16 900.95 1137.83 902.94 1124.49 902.94 1111.16 900.93 1097.82 897.1 1084.49 891.78 1071.15 885.44 1057.82 878.62 1044.48 871.92 1031.15 865.92 1017.81 861.15 1004.48 858.02 991.14 856.81 977.81 857.61 964.47 860.37 951.14 864.83 937.8 870.62 924.47 877.23 911.13 884.07 897.8 890.56 884.47 896.13 871.13 900.29 857.8 902.69 844.46 903.11 831.13 901.51 817.79 898.04 804.46 893 791.12 886.82 777.79 880.05 764.45 873.28 751.12 867.09 737.78 862.02 724.45 858.52 711.11 856.89 697.78 857.28 684.44 859.64 671.11 863.78 657.77 869.33 644.44 875.8 631.11 882.65 617.77 889.26 604.44 895.07 591.1 899.56 577.77 902.35 564.43 903.19 551.1 902.01 537.76 898.91 524.43 894.16 511.09 888.18 497.76 881.49 484.42 874.67 471.09 868.31 457.75 862.97 444.42 859.11 431.09 857.07 417.75 857.03 404.42 858.99 391.08 862.78 377.75 868.07 364.41 874.4 351.08 881.22 337.74 887.93 324.41 893.94 311.07 898.75 297.74 901.92 284.4 903.18 271.07 902.42 257.73 899.71 244.4 895.28 231.06 889.51 217.73 882.92 204.4 876.08 191.06 869.57 177.73 863.97 164.39 859.77 151.06 857.33 137.72 856.87 124.39 858.42 111.05 861.85 97.72 866.86 84.38 873.01 71.05 879.78 57.71 886.56 44.38 892.77 31.05 897.87 17.71 901.41 4.38 903.08 -8.95 902.74 -22.28 900.43 -35.62 896.33 -48.95 890.81 -62.29 884.34 -75.62 877.5 -88.96 870.88 -102.29 865.04 -115.63 860.52 -128.96 857.69 -142.3 856.8 -137.76 842.02 -134.02 827.25 -131.76 812.47 -131.39 797.7 -132.96 782.92 -136.21 768.15 -140.54 753.37 -145.16 738.6 -149.25 723.82 -152.06 709.05 -153.08 694.27 -152.13 679.5 -149.39 664.72 -145.34 649.95 -140.72 635.17 -136.36 620.4 -133.06 605.62 -131.41 590.85 -131.71 576.07 -133.9 561.3 -137.59 546.52 -142.12 531.75 -146.65 516.97 -150.38 502.2 -152.62 487.42 -152.98 472.65 -151.38 457.87 -148.12 443.1 -143.79 428.32 -139.17 413.55 -135.09 398.77 -132.29 384 -131.29 369.22 -132.25 354.45 -135.02 339.67 -139.07 324.9 -143.7 310.12 -148.04 295.35 -151.33 280.57 -152.97 265.8 -152.65 251.02 -150.44 236.25 -146.74 221.47 -142.21 206.7 -137.68 191.92 -133.97 177.15 -131.74 162.37 -131.4 147.6 -133.01 132.82 -136.28 118.05 -140.62 103.27 -145.24 88.5 -149.31 73.72 -152.09 58.95 -153.08 44.17 -152.1 29.4 -149.32 14.62 -145.26 -0.14 -140.63 -14.92 -136.29 -29.69 -133.02 -44.47 -131.4 -59.24 -131.73 -74.02 -133.96 -88.79" fill="url(#uuunion-grad)"></path><path d="M-133.97 -88.79Q-131.74 -74.02 -131.41 -59.24 -133.03 -44.47 -136.3 -29.69 -140.64 -14.92 -145.27 -0.14 -149.33 14.62 -152.11 29.4 -153.09 44.17 -152.1 58.95 -149.32 73.72 -145.25 88.5 -140.63 103.27 -136.29 118.05 -133.02 132.82 -131.41 147.6 -131.75 162.37 -133.98 177.15 -137.69 191.92 -142.22 206.7 -146.75 221.47 -150.45 236.25 -152.66 251.02 -152.98 265.8 -151.34 280.57 -148.05 295.35 -143.71 310.12 -139.08 324.9 -135.03 339.67 -132.26 354.45 -131.3 369.22 -132.3 384 -114.95 385.41 -97.6 388.53 -88.93 390.94 -80.25 393.7 -71.57 396.71 -62.9 399.85 -54.22 402.99 -45.55 406.02 -36.87 408.81 -28.2 411.26 -19.52 413.27 -10.84 414.76 5.54 415.91 8.44 415.98 19.5 412.15 30.49 407.41 41.42 401.85 52.29 395.63 63.11 388.94 73.88 381.99 84.62 375.02 95.33 368.26 106.01 361.93 116.69 356.21 127.35 351.27 138.01 347.21 148.69 344.07 159.37 341.85 170.08 340.5 180.82 339.9 191.59 339.89 202.4 340.28 213.24 340.86 224.14 341.4 235.08 341.69 246.08 341.51 257.12 340.69 268.22 339.1 279.37 336.66 290.57 333.31 301.81 329.09 313.11 324.06 324.44 318.35 335.81 312.11 347.22 305.54 358.65 298.85 370.1 292.25 381.57 285.94 393.04 280.13 404.52 274.97 415.98 270.58 427.44 267.03 438.87 264.33 450.27 262.47 461.64 261.35 472.96 260.86 484.24 260.82 495.46 261.05 506.62 261.34 517.71 261.49 528.74 261.31 539.69 260.61 550.57 259.25 561.36 257.14 572.09 254.21 582.73 250.46 593.3 245.94 603.79 240.72 614.21 234.95 624.57 228.79 634.86 222.41 645.1 216.03 655.29 209.84 665.43 204.01 675.55 198.72 685.64 194.08 695.71 190.19 705.78 187.08 715.85 184.75 725.94 183.15 736.06 182.17 746.22 181.69 756.43 181.53 766.69 181.53 777.03 181.49 787.45 181.22 797.96 180.55 808.57 179.35 819.29 177.49 830.13 174.9 841.09 171.57 852.18 167.5 863.4 162.76 874.75 157.45 886.25 151.7 897.89 145.69 909.66 139.58 921.58 133.56 933.62 127.8 945.8 122.45 958.1 117.65 970.52 113.5 983.05 110.04 995.68 107.3 1008.39 105.25 1021.19 103.82 1034.04 102.89 1046.94 102.34 1059.88 102 1072.84 101.7 1085.8 101.28 1098.75 100.58 1111.67 99.44 1124.54 97.75 1137.35 95.43 1150.07 92.45 1162.71 88.78 1175.23 84.48 1187.62 79.61 1199.87 74.3 1211.97 68.66 1223.9 62.87 1235.65 57.07 1247.21 51.44 1258.58 46.12 1269.74 41.24 1280.69 36.9 1291.44 33.17 1301.97 30.09 1312.28 27.64 1322.38 25.77 1332.28 24.42 1341.98 23.46 1351.48 22.76 1360.79 22.17 1369.94 21.54 1378.92 20.72 1387.76 19.58 1396.47 17.99 1405.06 15.86 1413.56 13.15 1422 9.83 1407.53 -7.92 1396.61 -25.68 1391.91 -43.44 1394.57 -61.2 1403.94 -78.95 1417.74 -96.71 1432.58 -114.47 1444.82 -132.23 1432.27 -132.13 1419.71 -132.61 1407.15 -133.64 1394.59 -135.15 1382.04 -137.01 1369.48 -139.1 1356.92 -141.26 1344.37 -143.32 1331.81 -145.13 1319.25 -146.56 1306.69 -147.5 1294.14 -147.89 1281.58 -147.68 1269.02 -146.91 1256.47 -145.62 1243.91 -143.91 1231.35 -141.91 1218.8 -139.77 1206.24 -137.64 1193.68 -135.69 1181.12 -134.06 1168.57 -132.87 1156.01 -132.21 1143.45 -132.13 1130.9 -132.64 1118.34 -133.69 1105.78 -135.21 1093.22 -137.09 1080.67 -139.18 1068.11 -141.33 1055.55 -143.39 1043 -145.19 1030.44 -146.6 1017.88 -147.53 1005.32 -147.89 992.77 -147.67 980.21 -146.87 967.65 -145.56 955.1 -143.84 942.54 -141.84 929.98 -139.69 917.42 -137.57 904.87 -135.63 892.31 -134.01 879.75 -132.84 867.2 -132.2 854.64 -132.14 842.08 -132.67 829.53 -133.74 816.97 -135.27 804.41 -137.16 791.85 -139.26 779.3 -141.41 766.74 -143.46 754.18 -145.25 741.63 -146.65 729.07 -147.55 716.51 -147.89 703.95 -147.65 691.4 -146.83 678.84 -145.51 666.28 -143.78 653.73 -141.76 641.17 -139.61 628.61 -137.5 616.05 -135.56 603.5 -133.96 590.94 -132.81 578.38 -132.19 565.83 -132.15 553.27 -132.7 540.71 -133.79 528.15 -135.34 515.6 -137.23 503.04 -139.34 490.48 -141.49 477.93 -143.53 465.37 -145.31 452.81 -146.69 440.25 -147.57 427.7 -147.89 415.14 -147.63 402.58 -146.79 390.03 -145.45 377.47 -143.71 364.91 -141.68 352.36 -139.54 339.8 -137.42 327.24 -135.5 314.68 -133.91 302.13 -132.78 289.57 -132.18 277.01 -132.16 264.46 -132.73 251.9 -133.83 239.34 -135.4 226.78 -137.31 214.23 -139.41 201.67 -141.56 189.11 -143.6 176.56 -145.36 164 -146.73 151.44 -147.6 138.88 -147.89 126.33 -147.61 113.77 -146.75 101.21 -145.4 88.66 -143.64 76.1 -141.61 63.54 -139.46 50.98 -137.35 38.43 -135.44 25.87 -133.86 13.31 -132.74 0.76 -132.17 -11.79 -132.17 -24.35 -132.76 -36.9 -133.88 -49.46 -135.46 -62.02 -137.38 -74.58 -139.49 -87.13 -141.64 -99.69 -143.67 -112.25 -145.42 -124.8 -146.77 -137.36 -147.62 -152.8 -140.41 -148.11 -118.25 -140.6 -103.54 -133.97 -88.79" fill="url(#uuunion-grad2)" filter="url(#uuunion-blur)"></path><path d="M1430.39 334.54Q1439.34 333.73 1448.29 332.38 1457.24 330.55 1466.2 328.31 1475.15 325.75 1484.1 322.96 1493.05 320.06 1502.01 317.15 1510.96 314.36 1519.91 311.78 1528.86 309.53 1537.82 307.68 1546.77 306.31 1555.72 305.47 1564.67 305.2 1573.63 305.5 1556.86 322.74 1541.89 339.98 1532.39 357.23 1530.67 374.47 1537.15 391.71 1550.26 408.95 1566.79 426.2 1582.67 443.44 1594.03 460.68 1598.09 477.93 1593.85 495.17 1582.35 512.41 1566.4 529.65 1549.91 546.9 1536.92 564.14 1530.61 581.38 1532.52 598.63 1542.19 615.87 1557.24 633.11 1573.99 650.35 1588.35 667.6 1596.79 684.84 1597.26 702.08 1589.62 719.33 1575.76 736.57 1559.07 753.81 1543.64 771.05 1533.23 788.3 1530.41 805.54 1535.86 822.78 1548.25 840.03 1564.54 857.27 1552.31 856.85 1540.08 858.13 1527.84 861.02 1515.61 865.29 1503.38 870.65 1491.15 876.69 1478.92 882.98 1466.69 889.04 1454.46 894.44 1442.22 898.79 1429.99 901.75 1417.76 903.11 1405.53 902.78 1393.3 900.78 1381.07 897.25 1368.84 892.46 1356.6 886.75 1344.37 880.54 1332.14 874.3 1319.91 868.47 1307.68 863.49 1295.45 859.72 1283.22 857.44 1270.98 856.81 1258.75 857.88 1246.52 860.58 1234.29 864.7 1222.06 869.95 1209.83 875.93 1197.6 882.21 1185.37 888.33 1173.13 893.83 1160.9 898.32 1148.67 901.47 1136.44 903.04 1124.21 902.92 1111.98 901.11 1099.75 897.76 1087.51 893.1 1075.28 887.48 1063.05 881.31 1050.82 875.05 1038.59 869.15 1026.36 864.04 1014.13 860.1 1001.89 857.63 989.66 856.8 977.43 857.66 965.2 860.17 952.97 864.13 940.74 869.26 928.51 875.17 916.28 881.44 904.04 887.6 891.81 893.21 879.58 897.84 867.35 901.16 855.12 902.94 842.89 903.02 830.66 901.42 818.42 898.24 806.19 893.73 793.96 888.21 781.73 882.08 769.5 875.8 757.27 869.83 745.04 864.61 732.8 860.51 720.57 857.85 708.34 856.81 696.11 857.47 683.88 859.78 671.65 863.58 659.42 868.58 647.18 874.42 634.95 880.67 622.72 886.87 610.49 892.56 598.26 897.34 586.03 900.84 573.8 902.81 561.57 903.1 549.33 901.7 537.1 898.71 524.87 894.34 512.64 888.93 500.41 882.85 488.18 876.57 475.95 870.53 463.71 865.19 451.48 860.94 439.25 858.09 427.02 856.84 414.79 857.29 402.56 859.41 390.33 863.04 378.09 867.92 365.86 873.68 353.63 879.9 341.4 886.13 329.17 891.91 316.94 896.82 304.71 900.49 292.48 902.65 280.24 903.16 268.01 901.96 255.78 899.16 243.55 894.94 231.32 889.63 219.09 883.61 206.86 877.33 194.62 871.24 182.39 865.8 170.16 861.39 157.93 858.35 145.7 856.9 133.47 857.15 121.24 859.07 109 862.53 96.77 867.26 84.54 872.94 72.31 879.13 60.08 885.38 47.85 891.24 35.62 896.27 23.39 900.11 6.05 897.76 2.82 882.89 4.38 872.74 5.51 862.59 6.1 852.44 6.12 842.29 5.26 827.07 5.45 822 16.83 814.81 28.17 806.03 39.5 795.85 50.88 784.59 62.35 772.64 73.94 760.44 85.67 748.45 97.57 737.11 109.65 726.8 121.91 717.81 134.33 710.35 146.91 704.5 159.62 700.21 172.43 697.32 185.32 695.56 198.25 694.57 211.19 693.95 224.1 693.26 236.96 692.08 249.74 690.02 262.43 686.78 275 682.14 287.46 675.98 299.8 668.31 312.04 659.26 324.18 649.05 336.26 637.99 348.3 626.47 360.33 614.88 372.38 603.65 384.49 593.13 396.69 583.66 409.01 575.47 421.48 568.69 434.11 563.35 446.93 559.37 459.93 556.56 473.11 554.64 486.46 553.28 499.96 552.1 513.57 550.7 527.27 548.73 541 545.85 554.73 541.82 568.39 536.49 581.93 529.79 595.32 521.78 608.49 512.6 621.41 502.49 634.04 491.75 646.36 480.74 658.35 469.82 670.02 459.34 681.37 449.63 692.42 440.94 703.21 433.44 713.79 427.22 724.21 422.26 734.54 418.45 744.85 415.59 755.22 413.4 765.72 411.58 776.44 409.78 787.44 407.65 796.72 409.22 806.01 410.3 815.32 410.78 824.63 410.58 833.96 409.65 843.31 407.99 852.67 405.6 862.04 402.56 871.43 398.93 880.84 394.84 890.27 390.41 899.72 385.8 909.19 381.16 918.69 376.64 928.21 372.41 937.75 368.59 947.32 365.31 956.91 362.66 966.53 360.7 976.18 359.46 985.85 358.94 995.56 359.11 1005.29 359.9 1015.05 361.2 1024.85 362.91 1034.68 364.89 1044.53 366.97 1054.42 369.02 1064.35 370.87 1074.3 372.38 1084.29 373.43 1094.31 373.9 1104.36 373.73 1114.45 372.86 1124.57 371.27 1134.72 368.99 1144.91 366.06 1155.13 362.56 1165.38 358.6 1175.67 354.31 1185.98 349.82 1196.33 345.3 1206.71 340.88 1217.12 336.72 1227.56 332.95 1238.03 329.68 1248.52 327.02 1259.05 325.02 1269.6 323.72 1280.18 323.11 1290.78 323.18 1301.41 323.84 1312.06 325.02 1322.73 326.59 1333.43 328.43 1344.14 330.4 1354.87 332.34 1365.62 334.1 1376.38 335.55 1387.16 336.56 1397.95 337.03 1408.75 336.88 1419.57 336.06 1430.39 334.54" fill="url(#uuunion-grad3)" filter="url(#uuunion-blur2)"></path></svg>